<svg xmlns="http://www.w3.org/2000/svg" width="60" height="60" viewBox="0 0 60 60">
    <g fill="none" fill-rule="evenodd">
        <g>
            <g>
                <g>
                    <g>
                        <g transform="translate(-957 -1286) translate(0 665) translate(256 283) translate(554 317) translate(147 21)">
                            <circle cx="30" cy="30" r="30" fill="#E5F9F9"/>
                            <g>
                                <path fill="#00C4C9" d="M20.816 14.974c3.88-5.3 7.74-9.731 7.74-11.527 0-1.795-1.276-3.161-1.413-2.988-5.797 7.295-10.027 13.046-10.22 12.807C11.159 6.132 5.924.316 5.729.459c-2.92 2.134 0 4.269 0 4.696.487.427 7.554 9.424 7.787 9.819 1.53 1.732 3.42 5.3 7.3 0z" transform="translate(14.737 15.79)"/>
                                <path fill="#464646" d="M25.022.33c-.334-.196-.781-.118-1.01.177C20.49 5.059 17.397 9.1 14.734 12.63 3.839-.144 3.834-.141 3.129.28c-.024.014-.049.03-.075.044-3.802 2.155-1.15 7.291 7.297 15.43.42.514.428.845.202 1.077-.226.233-.683.357-1.028.284C3.982 15.933-.86 18.633.263 23.235c1.052 4.314 5.49 6.009 9.446 4.438 1.785-.881 3.49-2.345 5.124-4.385l.172.182c.596.63 1.153 1.189 1.739 1.728.65.598 1.276 1.115 1.875 1.536.634.444 1.229.774 1.788.974 2.752.952 5.223.828 7.318-.507 1.243-.792 2.236-2.238 2.486-3.785.303-1.883-.474-3.745-2.423-5.3l-.155-.12c-1.984-1.493-3.813-1.502-6.571-.67-1.521.458-1.79.52-2.111.455-.89-.222-1.844-1.107-2.376-2.288-.07-.157-.205-.283-.376-.354-.813-.338-2.79.005-3.371 1.231l-.03.075c-.145.447.11 1.377.649 2.19.744 1.122 1.979 2.051 3.747 2.645 1.015.404 2.073.394 3.522.109.244-.048.456-.094.851-.182 2.386-.533 3.162-.498 3.892.45.815 1.456-.303 2.553-1.822 2.545-1.367.004-2.473-.547-3.382-1.703-.236-.3-.697-.37-1.03-.158-.332.213-.41.629-.175.929 1.179 1.498 2.727 2.27 4.586 2.265 2.509.012 4.561-2.023 3.114-4.527l-.044-.066c-.677-.9-1.577-1.345-2.684-1.405-.771-.043-1.356.052-2.81.377-.382.085-.585.129-.81.173-1.18.232-1.959.238-2.674-.05-1.463-.487-2.439-1.22-3.014-2.086-.207-.312-.347-.624-.424-.904-.026-.093-.042-.177-.05-.244.135-.188.392-.314.763-.378.13-.023.265-.035.396-.04.723 1.346 1.905 2.367 3.195 2.689.761.153 1.008.096 2.936-.485 2.322-.7 3.664-.693 5.157.43l.123.095c1.58 1.26 2.17 2.677 1.939 4.11-.19 1.183-.962 2.306-1.876 2.89-1.658 1.055-3.615 1.154-5.93.353-.403-.144-.885-.411-1.417-.785-.541-.38-1.12-.858-1.727-1.417-.58-.534-1.537-1.519-2.112-2.111l-.001-.001-.278-.285c-.051-.08-.122-.152-.211-.208-.062-.04-.129-.07-.198-.09.064.02.126.046.184.081l.014.009.01.006c.01.008.084.082.201.202.139.213.14.489-.024.708-.183.245-.366.482-.55.712l-.135-.144-.238-.254c-.072-.077-.121-.128-.156-.163-.291-.198-.367-.596-.15-.89l.003-.005.008-.01.009-.011c.041-.052.09-.096.143-.133-.057.04-.109.088-.152.144l-.011.014c-1.669 2.237-3.382 3.786-5.126 4.654-3.08 1.204-6.486-.106-7.323-3.54-.843-3.46 2.858-5.524 7.479-4.539.868.186 1.886-.092 2.478-.701.722-.742.685-1.78-.206-2.839C4.177 7.86 1.67 3.491 3.4 1.781l.277.292c.485.52 1.198 1.315 2.138 2.384 1.885 2.143 4.675 5.382 8.371 9.716.307.36.914.343 1.197-.032 2.672-3.551 5.8-7.643 9.382-12.277 1.94 1.916-.165 6.236-6.79 13.023-.27.276-.24.697.065.94.306.243.773.216 1.043-.06 7.733-7.92 9.915-13.092 5.94-15.436z" transform="translate(14.737 15.79)"/>
                            </g>
                        </g>
                    </g>
                </g>
            </g>
        </g>
    </g>
</svg>
