<svg xmlns="http://www.w3.org/2000/svg" width="330" height="169" viewBox="0 0 330 169">
    <g fill="none" fill-rule="evenodd">
        <g>
            <g>
                <g>
                    <path stroke="#464646" stroke-width="2.4" d="M274.008 129.088C264.57 124.786 102.868 137.264 159.5 71 216.132 4.736 0 0 0 0" transform="translate(1 -723) translate(0 665) translate(0 60)"/>
                    <path fill="#00C4C9" d="M294.67 117.107l-22.686 34.07c-.557.838-.052 1.976.937 2.11l46.306 6.206c1.113.15 1.908-1.068 1.336-2.044l-23.625-40.278c-.503-.859-1.717-.892-2.268-.064" transform="translate(1 -723) translate(0 665) translate(0 60) rotate(-20 296.253 138.006)"/>
                    <path fill="#464646" d="M298.964 141.753l-21.282-9.162 5.916-8.278 15.366 17.44zm-31.495 5.123l8.669-12.127 27.098 11.668c1.262.543 2.375-1.024 1.462-2.06l-20.245-22.979c-.546-.62-1.52-.57-2 .103l-7.196 10.066-9.26-3.987 10.682-2.747c.687-.176 1.103-.883.928-1.578-.175-.696-.874-1.116-1.562-.939l-14.366 3.694c-1.191.307-1.317 1.968-.187 2.454l12.222 5.262-9.553 13.364c-.562.784-.105 1.893.842 2.043l55.221 8.794c1.072.17 1.857-.997 1.306-1.943l-27.623-47.4c-.47-.808-1.605-.861-2.148-.102l-5.302 7.418c-.417.581-.286 1.393.287 1.813.576.421 1.379.29 1.794-.291l4.153-5.81 25.245 43.32-50.467-8.036z" transform="translate(1 -723) translate(0 665) translate(0 60) rotate(-20 291.211 132.924)"/>
                </g>
            </g>
        </g>
    </g>
</svg>
