<svg xmlns="http://www.w3.org/2000/svg" width="261" height="538" viewBox="0 0 261 538">
    <g fill="none" fill-rule="evenodd">
        <g>
            <g>
                <g>
                    <path stroke="#464646" stroke-dasharray="12" stroke-width="3" d="M127.202 223.5c13.44 6.756 88.013 72.245 56.44 87.872-22.954 11.362-21.357-33.613-19.8-38.469 1.554-4.856 40.13-47.483 87.02 16.346 33.753 45.943-95.64 200.831-39.418 245.82" transform="translate(-1225 -3567) translate(0 3568) translate(1227)"/>
                    <path fill="#00C4C9" d="M79.373 194.657c0-.837.673-1.516 1.502-1.516h47.994c.83 0 1.504.679 1.504 1.516v29.968c0 .837-.675 1.516-1.504 1.516H80.875c-.829 0-1.502-.68-1.502-1.516v-29.968z" transform="translate(-1225 -3567) translate(0 3568) translate(1227)"/>
                    <path fill="#464646" d="M124.42 245.64l-1.428-3.236c-.335-.758.009-1.644.767-1.978.758-.335 1.643.009 1.977.767l1.953 4.421c.625 1.418-.405 3.026-1.962 3.026H72.02c-1.558 0-2.589-1.606-1.963-3.024l3.932-8.913c.349-.787 1.127-1.298 1.99-1.298h48.814v-36.764H72.952v31.825h46.697v-26.887H78.097v23.728c0 .829-.672 1.5-1.5 1.5-.829 0-1.5-.671-1.5-1.5v-24.543c0-1.203.969-2.185 2.175-2.185h43.203c1.206 0 2.174.983 2.174 2.184v28.52c0 1.202-.969 2.183-2.174 2.183H72.128c-1.205 0-2.176-.982-2.176-2.184v-33.458c0-1.203.97-2.184 2.176-2.184h53.49c1.205 0 2.175.983 2.175 2.185v38.397c0 1.201-.97 2.183-2.175 2.183h-49.1l-3.193 7.236h51.095z" transform="translate(-1225 -3567) translate(0 3568) translate(1227)"/>
                    <path stroke="#464646" stroke-dasharray="12" stroke-width="3" d="M70.425 208.436c-11-5-114-33-48-110s-4-98-4-98" transform="translate(-1225 -3567) translate(0 3568) translate(1227)"/>
                </g>
            </g>
        </g>
    </g>
</svg>
