<svg xmlns="http://www.w3.org/2000/svg" width="60" height="60" viewBox="0 0 60 60">
    <g fill="none" fill-rule="evenodd">
        <g>
            <g>
                <g>
                    <g>
                        <g transform="translate(-422 -1286) translate(0 665) translate(256 283) translate(0 317) translate(166 21)">
                            <circle cx="30" cy="30" r="30" fill="#E5F9F9"/>
                            <g>
                                <path fill="#00C4C9" d="M9.695 23.758H8.463c-.337 0-.61-.264-.61-.59V21.98c0-.326-.274-.59-.612-.59H6.01c-.337 0-.61-.264-.61-.59v-1.19c0-.325.273-.589.61-.589h1.232c.338 0 .611-.264.611-.59v-1.188c0-.327.274-.59.611-.59h1.232c.338 0 .611.263.611.59v1.189c0 .325.274.59.61.59h1.233c.337 0 .61.263.61.589V20.8c0 .326-.273.59-.61.59h-1.232c-.337 0-.611.264-.611.59v1.189c0 .325-.273.59-.61.59zm19.26-.888c1.625 0 2.944-1.193 2.944-2.664 0-1.472-1.319-2.665-2.945-2.665s-2.944 1.193-2.944 2.665c0 1.471 1.318 2.664 2.944 2.664z" transform="translate(12.105 13.158)"/>
                                <path fill="#464646" d="M16.074 5.764l2.944.444c.69.12.761 1.31-.124 1.811-.918.167-1.501 1.021-1.472 1.99v1.315c0 .368.33.666.736.666h2.944l.108-.007c.4-.054.629.105.629.23v1.775c0-.367.33-.666.736-.666h.736v.666c0 .368-.33.667-.736.667h4.907c4.017 0 7.116 2.804 7.116 6.439 0 2.429-1.745 4.645-4.439 5.596-.379.134-.566.52-.418.863.148.343.575.512.953.378 3.248-1.146 5.376-3.849 5.376-6.837 0-4.37-3.758-7.772-8.588-7.772h-4.171v-1.11c0-.962-1.032-1.691-2.258-1.554h-2.159v-.666c-.012-.413.168-.658.31-.669.097-.008.19-.033.276-.073 2.133-1.01 2.014-3.97-.202-4.353l-2.918-.44c-1.004-.282-1.178-1.38-.267-1.893l2.444-1.327c.348-.189.461-.598.252-.914-.21-.315-.661-.417-1.01-.228l-2.454 1.332c-2.026 1.143-1.586 3.743.67 4.32l.079.017zm-1.597 8.224c0-.077-.015-.152-.042-.222.027-.069.042-.144.042-.222v-.888c0-.424.282-.666.736-.666.407 0 .737-.298.737-.666 0-.368-.33-.666-.737-.666-1.25 0-2.208.822-2.208 1.998v.666H8.834c-4.83 0-8.589 3.402-8.589 7.772 0 2.988 2.128 5.69 5.376 6.837.38.134.806-.035.954-.378.148-.343-.04-.729-.418-.863-2.694-.951-4.44-3.168-4.44-5.596 0-3.634 3.1-6.44 7.117-6.44h4.907c.407 0 .736-.298.736-.666zm-1.472-.666h.736c.32 0 .593.186.694.444-.1.26-.373.445-.694.445-.406 0-.736-.299-.736-.667v-.222zm-4.171 15.1c-.407 0-.737-.3-.737-.667v-3.109c0 .368.33.666.737.666h.49c.085 0 .167-.004.246-.011v1.751c2.179-.219 4.174-1.4 5.523-3.22.136-.185.366-.296.611-.296h5.89c.28 0 .535.144.659.37 1.007 1.843 3.143 3.096 5.475 3.178V23.93c.237.034.483.051.736.051.406 0 .736-.298.736-.666v4.44c0 .369-.33.667-.736.667h-.491c-2.828 0-5.454-1.401-6.82-3.553h-5.065c-1.764 2.203-4.4 3.553-7.254 3.553zm18.894-4.493c-2.027-.289-3.436-1.768-3.436-3.723 0-1.822 1.854-3.331 4.172-3.331 1.923 0 3.68 1.59 3.68 3.33 0 1.166-.411 2.074-1.234 2.723-.306.242-.77.213-1.038-.064-.267-.278-.235-.698.071-.94.485-.383.73-.922.73-1.718 0-1.005-1.1-1.999-2.21-1.999-1.536 0-2.698.946-2.698 1.999 0 1.448 1.098 2.442 2.699 2.442-.407 0-.736.298-.736.666v.615zm-18.214.02c.02-.008.038-.017.056-.027v-1.496c0-.368.33-.666.736-.666h1.653c.045-.064.064-.133.064-.222v-.888c0-.09-.02-.158-.064-.222h-1.653c-.407 0-.736-.299-.736-.666v-1.496c-.071-.04-.147-.059-.246-.059h-.981c-.099 0-.175.018-.246.058v1.497c0 .367-.33.666-.736.666H5.708c-.045.063-.064.132-.064.222v.888c0 .09.02.158.064.222h1.653c.407 0 .736.298.736.666v.888c0 .368-.33.666-.736.666-.406 0-.736-.298-.736-.666v-.222H5.398c-.17 0-.336-.054-.468-.152-.466-.348-.759-.779-.759-1.402v-.888c0-.624.293-1.054.759-1.402.132-.099.297-.153.468-.153h1.227v-1.11c0-.154.06-.304.168-.423.384-.422.86-.687 1.55-.687h.981c.688 0 1.164.264 1.549.685.11.12.169.27.169.425v1.11h1.227c.171 0 .338.055.47.154.465.349.757.777.757 1.4v.889c0 .623-.292 1.052-.757 1.4-.132.1-.299.154-.47.154h-1.227v1.11c0 .155-.06.306-.17.425-.337.37-.744.618-1.302.674v-1.099c0-.09-.02-.175-.056-.254zm0 0c-.055.021-.116.031-.19.031h-.49c-.407 0-.737.299-.737.666v-.444c0-.368.33-.666.737-.666.307 0 .57.17.68.412z" transform="translate(12.105 13.158)"/>
                            </g>
                        </g>
                    </g>
                </g>
            </g>
        </g>
    </g>
</svg>
