<svg xmlns="http://www.w3.org/2000/svg" width="60" height="60" viewBox="0 0 60 60">
    <g fill="none" fill-rule="evenodd">
        <g>
            <g>
                <g>
                    <g transform="translate(-375 -969) translate(0 665) translate(256 283) translate(119 21)">
                        <circle cx="30" cy="30" r="30" fill="#E5F9F9"/>
                        <g>
                            <path fill="#00C4C9" d="M4.088 1.812c0-.5.457-.906 1.022-.906h18.906c.565 0 1.022.406 1.022.906v23.106c0 .5-.457.906-1.022.906H5.11c-.565 0-1.022-.405-1.022-.906V1.812z" transform="translate(17.143 14.571)"/>
                            <path fill="#464646" d="M2.3 2.734v.664h-.767c-.706 0-1.278.507-1.278 1.133V28.09c0 .625.572 1.132 1.278 1.132h1.788v1.133c0 .626.572 1.133 1.278 1.133h20.44c.705 0 1.277-.507 1.277-1.133V6.343c0-.626-.572-1.133-1.278-1.133H23.25v-.68c0-.625-.572-1.132-1.277-1.132H10.73c-.424 0-.767.304-.767.68 0 .375.343.68.767.68h10.986v23.105H1.788V4.757H2.3v1.586c0 1.548.798 2.492 2.299 2.492 1.5 0 2.3-.944 2.3-2.492 0-.375-.344-.68-.767-.68-.423 0-.767.305-.767.68 0 .868-.223 1.133-.766 1.133s-.767-.265-.767-1.133V4.757h2.3c.423 0 .766-.304.766-.68V2.719C6.797 1.15 6.015.227 4.598.227c-1.534 0-2.34.951-2.298 2.507zm2.554 26.488H3.321v-.68c0-.374.344-.679.767-.679.423 0 .766.305.766.68v.68zm0 0h17.119c.705 0 1.277-.507 1.277-1.132V6.57h1.533v23.559H4.854v-.907zM23.25 6.57V5.21h-.766c-.424 0-.767.304-.767.68 0 .375.343.68.767.68h.766zM5.366 3.398v-.64c-.058-.888-.298-1.172-.767-1.172-.572 0-.79.256-.767 1.132v.68h1.534z" transform="translate(17.143 14.571)"/>
                        </g>
                    </g>
                </g>
            </g>
        </g>
    </g>
</svg>
