<svg xmlns="http://www.w3.org/2000/svg" width="242" height="538" viewBox="0 0 242 538">
    <g fill="none" fill-rule="evenodd">
        <g>
            <g>
                <g>
                    <path stroke="#464646" stroke-dasharray="11.938 11.938" stroke-width="3" d="M67.598 535.818c4.07-65.29 70.299-172.308 85.477-126.411 13.114 39.649-90.175 50.93-58.29-19.612 10.244-22.664 50.546-52.58 66.55-63.413" transform="translate(-155 -3574) translate(0 3568) translate(89 8)"/>
                    <path stroke="#464646" stroke-dasharray="12" stroke-width="3" d="M207 332.854c29.012.316 83.848-52.49 61.992-64.314-26.543-14.36-26.543 19.55-26.543 27.061 0 7.511 29.656 37.196 60.551-7.601 32.476-47.09-228-155-37.999-288" transform="translate(-155 -3574) translate(0 3568) translate(89 8)"/>
                    <path fill="#00C4C9" d="M181.595 306.61c.006-.643.318-1.242.84-1.613l15.492-11.026c.682-.486 1.595-.493 2.288-.022l13.487 9.214c.545.373.871.991.871 1.652v8.43h14.794c1.105 0 2 .895 2 2v26.882c0 1.103-.895 2-2 2H167.05c-1.104 0-2-.897-2-2v-17.882c0-1.105.896-2 2-2h14.416l.13-15.635z" transform="translate(-155 -3574) translate(0 3568) translate(89 8)"/>
                    <path fill="#464646" d="M197.223 314.714c.523-.645.428-1.591-.216-2.113l-2.325-1.888-.13-5.641c1.216.253 2.346.853 3.255 1.762 2.538 2.538 2.53 6.66-.016 9.206-2.547 2.547-6.668 2.554-9.206.016-2.114-2.114-2.497-5.386-.984-7.926.426-.714.193-1.635-.52-2.058-.712-.423-1.634-.188-2.06.526-2.213 3.715-1.655 8.496 1.435 11.586 3.71 3.71 9.735 3.7 13.456-.023 3.722-3.721 3.732-9.746.023-13.455-1.862-1.863-4.371-2.84-6.956-2.773l-1.503.039.234 10.205 3.399 2.76c.643.521 1.59.422 2.114-.223zm-5.31-35.078v12.334l-16.198 11.394c-.533.374-.85.985-.85 1.636v11.312h-15.952c-1.104 0-2 .895-2 2v27.85h31.654v-13.127c.24-2.972 1.594-4.24 4.494-4.24 2.915 0 4.369 1.296 4.76 4.277v4.557c0 .836.674 1.514 1.506 1.514.83 0 1.503-.678 1.503-1.514v-4.653l-.01-.186c-.56-4.547-3.282-7.021-7.76-7.021-4.503 0-7.15 2.512-7.503 7.207v10.16h-25.635v-23.797h15.953c1.105 0 2-.896 2-2v-11.801l15.186-10.682 15.185 10.682v11.801c0 1.104.896 2 2 2h15.658v23.797h-26.577c-.832 0-1.505.678-1.505 1.514 0 .835.673 1.512 1.505 1.512h29.586v-27.85c0-1.105-.895-2-2-2h-15.657V305c0-.651-.317-1.262-.85-1.636l-15.493-10.899V281.11h16.046v7.105h-11.216c-.816 0-1.478.66-1.478 1.474s.662 1.474 1.478 1.474h12.17c1.105 0 2-.896 2-2v-9c0-1.105-.895-2-2-2h-17v-.595c0-.776-.671-1.405-1.5-1.405-.828 0-1.5.629-1.5 1.405v2.068z" transform="translate(-155 -3574) translate(0 3568) translate(89 8)"/>
                </g>
            </g>
        </g>
    </g>
</svg>
