<svg xmlns="http://www.w3.org/2000/svg" width="60" height="60" viewBox="0 0 60 60">
    <g fill="none" fill-rule="evenodd">
        <g>
            <g>
                <g>
                    <g>
                        <g transform="translate(-935 -969) translate(0 665) translate(256 283) translate(554) translate(125 21)">
                            <circle cx="30" cy="30" r="30" fill="#E5F9F9"/>
                            <g>
                                <path fill="#00C4C9" d="M11.854 10.676v-8.55c0-.317.43-.479.688-.259l10.053 8.55c.264.224.084.619-.282.619H12.261c-.225 0-.407-.162-.407-.36zm10.093 9.36c.156.135.4.128.545-.017l8.114-8.116c.145-.145.137-.373-.02-.509l-2.24-1.948c-.156-.135-.4-.128-.545.017l-8.114 8.116c-.145.145-.136.373.02.509l2.24 1.948z" transform="translate(19.474 16.316)"/>
                                <path fill="#464646" d="M27.401 6.951c-.106.007-.208.062-.509.223L17.207 17.26c-.063.058-.116.129-.153.211-.011.025-.02.05-.029.076l-1.38 4.149-.014.05c-.148.614.49 1.16 1.175.975l4.63-1.014c.15-.034.287-.109.387-.215l9.814-10.314c.25-.262.233-.652-.04-.896-1.19-1.069-2.09-1.865-2.7-2.39-.309-.267-.545-.465-.712-.597-.093-.074-.167-.13-.23-.17-.05-.035-.096-.062-.15-.087l-.053-.023c-.03-.012-.063-.02-.158-.044-.084-.014-.139-.023-.193-.019zm-7.278 12.295l-1.413-1.519 8.814-9.178.346.295c.516.445 1.249 1.092 2.196 1.94L20.85 20.47l-3.508.77.714-2.145.928.998c.262.28.729.32 1.043.085.315-.233.358-.65.096-.932zm-3.707 2.197l.052-.012c-.017.003-.035.007-.052.012z" transform="translate(19.474 16.316)"/>
                                <path fill="#464646" d="M21.98 9.49h-7.656c-.41 0-.741-.296-.741-.661V3.53c0-.365.332-.662.74-.662.41 0 .742.297.742.662v4.635h5.937l-6.997-6.621H1.729v24.278h20.25v-6.4c0-.157.063-.31.177-.43l7.954-8.362-2.425-2.168-4.416 4.342c-.456.448-1.29.16-1.29-.445V9.49zm1.278-1.117c.156.151.215.325.204.493v1.781l3.65-3.588c.284-.28.773-.29 1.072-.023l3.457 3.09c.273.244.29.634.04.897l-8.22 8.643v6.82c0 .365-.331.662-.74.662H.988c-.41 0-.741-.297-.741-.662V.883C.247.517.579.22.987.22h13.337c.204 0 .399.075.539.207l8.395 7.945z" transform="translate(19.474 16.316)"/>
                            </g>
                        </g>
                    </g>
                </g>
            </g>
        </g>
    </g>
</svg>
